<svg width="40" height="41" viewBox="0 0 40 41" fill="none" xmlns="http://www.w3.org/2000/svg">
<g clip-path="url(#clip0_8_37)">
<path d="M0.853564 19.9149C0.852627 23.302 1.73763 26.6092 3.42044 29.5242L0.692627 39.4838L10.8851 36.8113C13.7042 38.346 16.8628 39.1502 20.0726 39.1504H20.0811C30.6772 39.1504 39.3026 30.5281 39.3072 19.9301C39.3092 14.7946 37.3111 9.96556 33.6808 6.33243C30.0511 2.69962 25.2237 0.6979 20.0803 0.695557C9.48294 0.695557 0.858096 9.31743 0.853721 19.9149" fill="url(#paint0_linear_8_37)"/>
<path d="M0.167188 19.9088C0.166094 23.4177 1.08281 26.8431 2.82562 29.8625L0 40.1792L10.558 37.4109C13.467 38.997 16.7423 39.8333 20.0752 39.8345H20.0837C31.06 39.8345 39.9953 30.902 40 19.9247C40.0019 14.6047 37.9319 9.60203 34.1719 5.83875C30.4114 2.07594 25.4114 0.0021875 20.0837 0C9.10562 0 0.171563 8.93125 0.167188 19.9088ZM6.45469 29.3425L6.06047 28.7167C4.40328 26.0817 3.52859 23.0367 3.52984 19.91C3.53344 10.7858 10.9591 3.3625 20.09 3.3625C24.5119 3.36438 28.6675 5.08813 31.7931 8.21563C34.9186 11.3434 36.6384 15.5013 36.6373 19.9234C36.6333 29.0477 29.2075 36.4719 20.0837 36.4719H20.0772C17.1064 36.4703 14.1928 35.6725 11.6519 34.1648L11.0472 33.8063L4.78188 35.4489L6.45469 29.3423V29.3425Z" fill="url(#paint1_linear_8_37)"/>
<path d="M15.1059 11.5855C14.7331 10.7569 14.3408 10.7402 13.9862 10.7257C13.6959 10.7132 13.3641 10.7141 13.0325 10.7141C12.7006 10.7141 12.1614 10.839 11.7056 11.3366C11.2494 11.8348 9.96375 13.0385 9.96375 15.4868C9.96375 17.9352 11.747 20.3013 11.9956 20.6337C12.2445 20.9654 15.4383 26.1504 20.4964 28.1451C24.7002 29.8027 25.5556 29.473 26.468 29.3899C27.3805 29.3071 29.4123 28.1865 29.8269 27.0244C30.2417 25.8626 30.2417 24.8666 30.1173 24.6585C29.993 24.4512 29.6611 24.3266 29.1634 24.0779C28.6656 23.829 26.2191 22.6251 25.763 22.459C25.3067 22.293 24.975 22.2102 24.6431 22.7085C24.3112 23.206 23.3583 24.3266 23.0678 24.6585C22.7777 24.9912 22.4872 25.0326 21.9897 24.7837C21.4917 24.534 19.8891 24.0091 17.9877 22.314C16.5083 20.9949 15.5095 19.366 15.2192 18.8677C14.9289 18.3702 15.1881 18.1005 15.4377 17.8526C15.6612 17.6296 15.9355 17.2715 16.1845 16.981C16.4327 16.6904 16.5155 16.483 16.6814 16.1512C16.8475 15.819 16.7644 15.5283 16.6402 15.2794C16.5155 15.0305 15.5484 12.5694 15.1059 11.5855Z" fill="white"/>
</g>
<defs>
<linearGradient id="paint0_linear_8_37" x1="19.9999" y1="39.4838" x2="19.9999" y2="0.695557" gradientUnits="userSpaceOnUse">
<stop stop-color="#1FAF38"/>
<stop offset="1" stop-color="#60D669"/>
</linearGradient>
<linearGradient id="paint1_linear_8_37" x1="20" y1="40.1792" x2="20" y2="0" gradientUnits="userSpaceOnUse">
<stop stop-color="#F9F9F9"/>
<stop offset="1" stop-color="white"/>
</linearGradient>
<clipPath id="clip0_8_37">
<rect width="40" height="40.3125" fill="white"/>
</clipPath>
</defs>
</svg>
